<svg width="27" height="27" viewBox="0 0 27 27" fill="none" xmlns="http://www.w3.org/2000/svg">
<g clip-path="url(#clip0_347_1229)">
<path d="M22.3975 7.8125H4.52246C4.07373 7.8125 3.70996 8.17627 3.70996 8.625V21.625C3.70996 22.0737 4.07373 22.4375 4.52246 22.4375H22.3975C22.8462 22.4375 23.21 22.0737 23.21 21.625V8.625C23.21 8.17627 22.8462 7.8125 22.3975 7.8125Z" stroke="white" stroke-linecap="round" stroke-linejoin="round"/>
<path d="M9.39746 11.0625V7.8125C9.39746 6.73506 9.82547 5.70175 10.5873 4.93988C11.3492 4.17801 12.3825 3.75 13.46 3.75C14.5374 3.75 15.5707 4.17801 16.3326 4.93988C17.0944 5.70175 17.5225 6.73506 17.5225 7.8125V11.0625" stroke="white" stroke-linecap="round" stroke-linejoin="round"/>
</g>
<defs>
<clipPath id="clip0_347_1229">
<rect width="26" height="26" fill="white" transform="translate(0.459961 0.5)"/>
</clipPath>
</defs>
</svg>
