<svg width="25" height="24" viewBox="0 0 25 24" fill="none" xmlns="http://www.w3.org/2000/svg">
<g clip-path="url(#clip0_220_9018)">
<rect width="24" height="24" transform="translate(0.5)" fill="white"/>
<path d="M20.75 6.75H4.25C3.83579 6.75 3.5 7.08579 3.5 7.5V19.5C3.5 19.9142 3.83579 20.25 4.25 20.25H20.75C21.1642 20.25 21.5 19.9142 21.5 19.5V7.5C21.5 7.08579 21.1642 6.75 20.75 6.75Z" stroke="black" stroke-linecap="round" stroke-linejoin="round"/>
<path d="M8.75 9.75V6.75C8.75 5.75544 9.14509 4.80161 9.84835 4.09835C10.5516 3.39509 11.5054 3 12.5 3C13.4946 3 14.4484 3.39509 15.1517 4.09835C15.8549 4.80161 16.25 5.75544 16.25 6.75V9.75" stroke="black" stroke-linecap="round" stroke-linejoin="round"/>
</g>
<defs>
<clipPath id="clip0_220_9018">
<rect width="24" height="24" fill="white" transform="translate(0.5)"/>
</clipPath>
</defs>
</svg>
