<svg width="353" height="17" viewBox="0 0 353 17" fill="none" xmlns="http://www.w3.org/2000/svg">
<path d="M0.679961 16.5L7.76396 0.769999H13.198L20.282 16.5H16.454L14.958 13.178H6.00396L4.50796 16.5H0.679961ZM7.27996 10.318H13.682L10.624 3.52H10.338L7.27996 10.318ZM33.0449 16.5V0.769999H36.5649V13.64H48.0709V16.5H33.0449ZM61.2754 16.5V0.813999L74.5194 0.769999C76.2647 0.769999 77.5554 1.13667 78.3914 1.87C79.242 2.58867 79.6674 3.674 79.6674 5.126C79.6674 6.578 79.1834 7.64133 78.2154 8.316C78.8607 8.668 79.3374 9.13733 79.6454 9.724C79.9534 10.296 80.1074 11.0367 80.1074 11.946C80.1074 13.4273 79.682 14.5567 78.8314 15.334C77.9954 16.0967 76.7047 16.478 74.9594 16.478L61.2754 16.5ZM74.1014 3.586H64.7954V7.106H74.1014C75.436 7.106 76.1034 6.50467 76.1034 5.302C76.1034 4.158 75.436 3.586 74.1014 3.586ZM74.5414 9.922H64.7954V13.662H74.5414C75.876 13.662 76.5434 13.0313 76.5434 11.77C76.5434 10.538 75.876 9.922 74.5414 9.922ZM92.2034 16.5L99.2874 0.769999H104.721L111.805 16.5H107.977L106.481 13.178H97.5274L96.0314 16.5H92.2034ZM98.8034 10.318H105.205L102.147 3.52H101.861L98.8034 10.318ZM124.568 16.5V0.769999H128.132L139.264 12.078V0.769999H142.784V16.5H139.22L128.088 5.17V16.5H124.568ZM175.551 16.5V0.769999H178.499L185.781 5.874H185.891L193.173 0.769999H196.121V16.5H192.601V5.17L187.607 8.514V16.5H184.087V8.514L179.071 5.17V16.5H175.551ZM208.885 16.5L215.969 0.769999H221.403L228.487 16.5H224.659L223.163 13.178H214.209L212.713 16.5H208.885ZM215.485 10.318H221.887L218.829 3.52H218.543L215.485 10.318ZM241.25 16.5V0.769999H254.428C256.056 0.769999 257.317 1.18067 258.212 2.002C259.121 2.82333 259.576 4.07 259.576 5.742C259.576 7.16467 259.246 8.27933 258.586 9.086C257.926 9.89267 256.987 10.3987 255.77 10.604L259.4 16.5H255.396L252.03 10.714H244.77V16.5H241.25ZM254.01 3.63H244.77V7.832L254.01 7.854C254.655 7.854 255.147 7.69267 255.484 7.37C255.836 7.04733 256.012 6.50467 256.012 5.742C256.012 4.96467 255.836 4.422 255.484 4.114C255.147 3.79133 254.655 3.63 254.01 3.63ZM281.315 16.61C278.411 16.61 276.189 15.9427 274.649 14.608C273.109 13.2587 272.339 11.264 272.339 8.624C272.339 5.99867 273.109 4.01133 274.649 2.662C276.189 1.31267 278.411 0.645333 281.315 0.659999L289.235 0.703999V3.52H281.557C279.65 3.52 278.235 3.92333 277.311 4.73C276.387 5.53667 275.925 6.83467 275.925 8.624C275.925 10.4133 276.387 11.7187 277.311 12.54C278.235 13.3467 279.65 13.75 281.557 13.75H289.455V16.61H281.315ZM309.01 16.61C307.412 16.61 306.15 16.4047 305.226 15.994C304.302 15.5687 303.642 14.9307 303.246 14.08C302.85 13.2293 302.652 12.1587 302.652 10.868V0.769999H306.172V10.868C306.172 11.9827 306.429 12.7453 306.942 13.156C307.47 13.552 308.358 13.75 309.604 13.75H313.85C315.097 13.75 315.977 13.552 316.49 13.156C317.018 12.7453 317.282 11.9827 317.282 10.868V0.769999H320.802V10.868C320.802 12.1587 320.604 13.2293 320.208 14.08C319.812 14.9307 319.152 15.5687 318.228 15.994C317.304 16.4047 316.043 16.61 314.444 16.61H309.01ZM334.373 16.61V13.75L347.023 13.772C347.668 13.772 348.16 13.6253 348.497 13.332C348.849 13.024 349.025 12.5327 349.025 11.858C349.025 11.1833 348.849 10.6993 348.497 10.406C348.16 10.098 347.668 9.944 347.023 9.944H339.147C337.519 9.944 336.25 9.55533 335.341 8.778C334.446 7.986 333.999 6.82733 333.999 5.302C333.999 3.77667 334.446 2.62533 335.341 1.848C336.25 1.056 337.519 0.659999 339.147 0.659999H351.511V3.52L339.521 3.498C338.89 3.498 338.399 3.64467 338.047 3.938C337.695 4.21667 337.519 4.67133 337.519 5.302C337.519 5.93267 337.695 6.39467 338.047 6.688C338.399 6.96667 338.89 7.106 339.521 7.106H347.397C349.025 7.106 350.286 7.50933 351.181 8.316C352.09 9.108 352.545 10.2887 352.545 11.858C352.545 13.4127 352.09 14.5933 351.181 15.4C350.286 16.2067 349.025 16.61 347.397 16.61H334.373Z" fill="white"/>
</svg>
