<svg width="32" height="17" viewBox="0 0 32 17" fill="none" xmlns="http://www.w3.org/2000/svg">
<g clip-path="url(#clip0_347_219)">
<path d="M27.0496 1.5H2.9743C1.33824 1.5 0.0119629 2.8417 0.0119629 4.49677V4.50323C0.0119629 6.1583 1.33824 7.5 2.9743 7.5H27.0496C28.6857 7.5 30.012 6.1583 30.012 4.50323V4.49677C30.012 2.8417 28.6857 1.5 27.0496 1.5Z" fill="white"/>
<path d="M12.0503 9.5H2.97367C1.33796 9.5 0.0119629 10.8417 0.0119629 12.4968V12.5032C0.0119629 14.1583 1.33796 15.5 2.97367 15.5H12.0503C13.686 15.5 15.012 14.1583 15.012 12.5032V12.4968C15.012 10.8417 13.686 9.5 12.0503 9.5Z" fill="white"/>
</g>
<defs>
<clipPath id="clip0_347_219">
<rect width="31.4482" height="16" fill="white" transform="translate(0.0119629 0.5)"/>
</clipPath>
</defs>
</svg>
