<svg width="31" height="31" viewBox="0 0 31 31" fill="none" xmlns="http://www.w3.org/2000/svg">
<path d="M22.1588 7.73288L22.6275 9.13913C22.7642 9.5843 23.0465 9.9706 23.4291 10.236L24.615 11.0329C25.0132 11.3001 25.3076 11.6958 25.4492 12.1539C25.5908 12.612 25.5711 13.1048 25.3932 13.5501L24.9244 14.6891C24.7204 15.1927 24.7204 15.7559 24.9244 16.2594L25.3932 17.3704C25.5706 17.8067 25.5959 18.2901 25.465 18.7426C25.334 19.195 25.0544 19.5901 24.6713 19.8641L23.6166 20.6188C23.23 20.8936 22.9489 21.2922 22.8197 21.7485L22.44 23.0798C22.3078 23.5471 22.017 23.9539 21.6176 24.2302C21.2181 24.5064 20.7349 24.635 20.251 24.5938L19.1119 24.5001C18.5729 24.4553 18.0377 24.6236 17.6213 24.9688L16.5244 25.8548C16.1504 26.1597 15.6827 26.3263 15.2002 26.3263C14.7177 26.3263 14.2499 26.1597 13.876 25.8548L12.9385 25.086C12.5627 24.7798 12.092 24.6141 11.6072 24.6173H9.96191C9.48843 24.6185 9.02859 24.4586 8.65804 24.1638C8.28744 23.8691 8.02818 23.457 7.92285 22.9954L7.62285 21.7204C7.50557 21.2059 7.19727 20.7552 6.76035 20.4594L5.75254 19.7188C5.37107 19.4594 5.08643 19.0808 4.94309 18.6422C4.79974 18.2037 4.80582 17.7301 4.96035 17.2954L5.4291 16.011C5.60254 15.5438 5.60254 15.0298 5.4291 14.5626L5.00723 13.4376C4.83853 12.9908 4.82792 12.4996 4.97717 12.0459C5.12641 11.5922 5.42652 11.2033 5.82754 10.9438L6.93848 10.2266C7.36799 9.94885 7.68135 9.52379 7.81973 9.03132L8.14785 7.85007C8.27934 7.37972 8.57094 6.97013 8.97238 6.69193C9.37377 6.41377 9.85973 6.28458 10.3463 6.32663L11.3963 6.41569C11.9365 6.45825 12.4723 6.2903 12.8916 5.94694L13.89 5.14071C14.2651 4.83419 14.7346 4.66675 15.2189 4.66675C15.7033 4.66675 16.1728 4.83419 16.5479 5.14071L17.4197 5.87194C17.839 6.21868 18.3776 6.387 18.9197 6.34069L20.0213 6.261C20.4911 6.23054 20.9576 6.35916 21.3454 6.62621C21.7331 6.89321 22.0197 7.28307 22.1588 7.73288Z" stroke="white" stroke-width="2" stroke-miterlimit="10"/>
<path d="M19.754 10.9014L10.4446 20.2155M12.5962 13.5546C13.5722 13.5546 14.3634 12.7634 14.3634 11.7875C14.3634 10.8114 13.5722 10.0203 12.5962 10.0203C11.6202 10.0203 10.829 10.8114 10.829 11.7875C10.829 12.7634 11.6202 13.5546 12.5962 13.5546ZM17.9868 20.9795C18.9628 20.9795 19.754 20.1883 19.754 19.2124C19.754 18.2364 18.9628 17.4452 17.9868 17.4452C17.0108 17.4452 16.2196 18.2364 16.2196 19.2124C16.2196 20.1883 17.0108 20.9795 17.9868 20.9795Z" stroke="white" stroke-width="2" stroke-linecap="round" stroke-linejoin="round"/>
</svg>
