<svg width="37" height="38" viewBox="0 0 37 38" fill="none" xmlns="http://www.w3.org/2000/svg">
<path d="M24.8089 13.95C24.6601 13.8504 24.493 13.7812 24.3172 13.7464L14.8399 12.0813C14.6631 12.0503 14.482 12.0543 14.3067 12.0933C14.1315 12.1322 13.9656 12.2052 13.8185 12.3082C13.5215 12.5162 13.3191 12.8335 13.256 13.1904C13.2247 13.3671 13.2285 13.5482 13.2673 13.7233C13.306 13.8984 13.3789 14.0642 13.4818 14.211C13.6895 14.5077 14.0067 14.7096 14.3636 14.7723L20.6109 15.8601L12.1449 21.7881C11.8491 21.9953 11.6475 22.3113 11.5846 22.6667C11.5217 23.0221 11.6026 23.3877 11.8095 23.6832C12.0164 23.9786 12.3323 24.1797 12.6878 24.2422C13.0433 24.3046 13.4092 24.2233 13.705 24.0162L22.171 18.0882L21.0565 24.3308C21.0245 24.5075 21.0278 24.6889 21.0662 24.8643C21.1047 25.0397 21.1775 25.2057 21.2804 25.3528C21.3834 25.4998 21.5145 25.625 21.6662 25.7211C21.8179 25.8172 21.9872 25.8823 22.1642 25.9127C22.341 25.9445 22.5224 25.941 22.698 25.9024C22.8735 25.8638 23.0397 25.7908 23.1869 25.6877C23.3342 25.5846 23.4596 25.4534 23.5559 25.3017C23.6522 25.1499 23.7175 24.9807 23.7481 24.8037L25.4249 15.3283C25.4523 15.1513 25.4444 14.9706 25.4017 14.7967C25.3234 14.4473 25.1104 14.1431 24.8089 13.95Z" fill="black"/>
</svg>
