<svg width="23" height="23" viewBox="0 0 23 23" fill="none" xmlns="http://www.w3.org/2000/svg">
<path d="M11.46 2.7C10.1633 2.7 8.91984 3.16357 8.00299 3.98873C7.08615 4.81389 6.57107 5.93305 6.57107 7.1C6.57107 8.26695 7.08615 9.38611 8.00299 10.2113C8.91984 11.0364 10.1633 11.5 11.46 11.5C12.7566 11.5 14.0001 11.0364 14.9169 10.2113C15.8338 9.38611 16.3488 8.26695 16.3488 7.1C16.3488 5.93305 15.8338 4.81389 14.9169 3.98873C14.0001 3.16357 12.7566 2.7 11.46 2.7ZM4.12663 7.1C4.12663 5.34957 4.89924 3.67084 6.27451 2.4331C7.64978 1.19536 9.51504 0.5 11.46 0.5C13.4049 0.5 15.2701 1.19536 16.6454 2.4331C18.0207 3.67084 18.7933 5.34957 18.7933 7.1C18.7933 8.85043 18.0207 10.5292 16.6454 11.7669C15.2701 13.0046 13.4049 13.7 11.46 13.7C9.51504 13.7 7.64978 13.0046 6.27451 11.7669C4.89924 10.5292 4.12663 8.85043 4.12663 7.1ZM6.57107 18.1C5.59861 18.1 4.66598 18.4477 3.97835 19.0665C3.29071 19.6854 2.90441 20.5248 2.90441 21.4C2.90441 21.6917 2.77564 21.9715 2.54642 22.1778C2.31721 22.3841 2.00634 22.5 1.68218 22.5C1.35803 22.5 1.04715 22.3841 0.817941 22.1778C0.58873 21.9715 0.459961 21.6917 0.459961 21.4C0.459961 19.9413 1.10381 18.5424 2.24986 17.5109C3.39592 16.4795 4.9503 15.9 6.57107 15.9H16.3488C17.9696 15.9 19.524 16.4795 20.6701 17.5109C21.8161 18.5424 22.46 19.9413 22.46 21.4C22.46 21.6917 22.3312 21.9715 22.102 22.1778C21.8728 22.3841 21.5619 22.5 21.2377 22.5C20.9136 22.5 20.6027 22.3841 20.3735 22.1778C20.1443 21.9715 20.0155 21.6917 20.0155 21.4C20.0155 20.5248 19.6292 19.6854 18.9416 19.0665C18.2539 18.4477 17.3213 18.1 16.3488 18.1H6.57107Z" fill="white"/>
</svg>
