<svg width="25" height="24" viewBox="0 0 25 24" fill="none" xmlns="http://www.w3.org/2000/svg">
<path d="M12.5001 17.76C7.38375 17.76 4.82007 12.6413 4.82007 12C4.82007 11.3587 7.38375 6.23999 12.5001 6.23999C17.6164 6.23999 20.1801 11.3587 20.1801 12C20.1801 12.6413 17.6164 17.76 12.5001 17.76ZM5.78703 12C5.96607 12.5916 8.17959 16.8 12.5001 16.8C16.8205 16.8 19.0341 12.5916 19.2131 12C19.0341 11.4084 16.8205 7.19999 12.5001 7.19999C8.17959 7.19999 5.96607 11.4084 5.78703 12ZM12.5001 15.36C10.6475 15.36 9.14007 13.8528 9.14007 12C9.14007 10.1472 10.6475 8.63999 12.5001 8.63999C14.3526 8.63999 15.8601 10.1472 15.8601 12C15.8601 13.8528 14.3526 15.36 12.5001 15.36ZM12.5001 9.59999C11.1767 9.59999 10.1001 10.6766 10.1001 12C10.1001 13.3234 11.1767 14.4 12.5001 14.4C13.8234 14.4 14.9001 13.3234 14.9001 12C14.9001 10.6766 13.8234 9.59999 12.5001 9.59999Z" fill="black"/>
</svg>
